# Blender v2.80 (sub 75) OBJ File: 'TOWER.blend'
# www.blender.org
mtllib TOWER.mtl
o Cylinder
v 0.000000 -2.227261 -1.000000
v 0.000000 5.356661 -1.000000
v 0.500000 -2.227261 -0.866025
v 0.500000 5.356661 -0.866025
v 0.866025 -2.227261 -0.500000
v 0.866025 5.356661 -0.500000
v 1.000000 -2.227261 0.000000
v 1.000000 5.356661 0.000000
v 0.866025 -2.227261 0.500000
v 0.866025 5.356661 0.500000
v 0.500000 -2.227261 0.866025
v 0.500000 5.356661 0.866025
v 0.000000 -2.227261 1.000000
v 0.000000 5.356661 1.000000
v -0.500000 -2.227261 0.866026
v -0.500000 5.356661 0.866026
v -0.866025 -2.227261 0.500000
v -0.866025 5.356661 0.500000
v -1.000000 -2.227261 0.000000
v -1.000000 5.356661 0.000000
v -0.866026 -2.227261 -0.499999
v -0.866026 5.356661 -0.499999
v -0.500001 -2.227261 -0.866025
v -0.500001 5.356661 -0.866025
v 0.000000 -5.836454 -1.383942
v 0.691971 -5.836454 -1.198529
v 1.198529 -5.836454 -0.691971
v 1.383942 -5.836454 0.000000
v 1.198529 -5.836454 0.691971
v 0.691971 -5.836454 1.198529
v 0.000000 -5.836454 1.383942
v -0.691971 -5.836454 1.198529
v -1.198529 -5.836454 0.691971
v -1.383942 -5.836454 0.000001
v -1.198529 -5.836454 -0.691970
v -0.691972 -5.836454 -1.198528
v -0.000000 -7.245265 -1.102530
v 0.551265 -7.245265 -0.954819
v 0.954819 -7.245265 -0.551265
v 1.102530 -7.245265 0.000000
v 0.954819 -7.245265 0.551265
v 0.551265 -7.245265 0.954819
v 0.000000 -7.245265 1.102530
v -0.551265 -7.245265 0.954819
v -0.954818 -7.245265 0.551265
v -1.102530 -7.245265 0.000001
v -0.954819 -7.245265 -0.551264
v -0.551265 -7.245265 -0.954818
v -0.000434 6.851812 -1.495109
v 0.747197 6.851812 -1.294782
v 1.294501 6.851812 -0.747478
v 1.494828 6.851812 0.000153
v 1.294501 6.851812 0.747784
v 0.747197 6.851812 1.295088
v -0.000434 6.851812 1.495415
v -0.748065 6.851812 1.295088
v -1.295369 6.851812 0.747784
v -1.495697 6.851812 0.000154
v -1.295370 6.851812 -0.747478
v -0.748066 6.851812 -1.294782
v 0.020804 6.861154 -1.021521
v 0.527901 6.861154 -0.885645
v 0.899123 6.861154 -0.514423
v 1.034999 6.861154 -0.007326
v 0.899123 6.861154 0.499772
v 0.527901 6.861154 0.870993
v 0.020804 6.861154 1.006870
v -0.486294 6.861154 0.870994
v -0.857515 6.861154 0.499772
v -0.993392 6.861154 -0.007325
v -0.857516 6.861154 -0.514423
v -0.486295 6.861154 -0.885644
v 0.020369 6.861154 -0.007173
v -0.748066 6.851812 -1.294782
v -1.295370 6.851812 -0.747478
v -1.495697 6.851812 0.000154
v -1.295369 6.851812 0.747784
v -0.748065 6.851812 1.295088
v -0.000434 6.851812 1.495415
v 0.747197 6.851812 1.295088
v 1.294501 6.851812 0.747784
v 1.494828 6.851812 0.000153
v 1.294501 6.851812 -0.747478
v 0.747197 6.851812 -1.294782
v -0.000434 6.851812 -1.495109
v 0.527901 6.861154 -0.885645
v 0.899123 6.861154 -0.514423
v 1.034999 6.861154 -0.007326
v 0.899123 6.861154 0.499772
v 0.527901 6.861154 0.870993
v 0.020804 6.861154 1.006870
v -0.486294 6.861154 0.870994
v -0.857515 6.861154 0.499772
v -0.993392 6.861154 -0.007325
v -0.857516 6.861154 -0.514423
v -0.486295 6.861154 -0.885644
v 0.020804 6.861154 -1.021521
v -0.748066 8.058282 -1.294782
v -1.293318 8.058282 -0.755137
v -1.497749 8.058282 0.007813
v -1.295369 8.058282 0.747784
v -0.748065 8.058282 1.295088
v -0.000434 8.058282 1.495415
v 0.747197 8.058282 1.295088
v 1.294501 8.058282 0.747784
v 1.494828 8.058282 0.000153
v 1.294501 8.058282 -0.747478
v 0.747197 8.058282 -1.294782
v -0.000434 8.058282 -1.495109
v 0.527901 8.067624 -0.885645
v 0.899123 8.067624 -0.514423
v 1.034999 8.067624 -0.007326
v 0.899123 8.067624 0.499772
v 0.527901 8.067624 0.870993
v 0.020804 8.067624 1.006870
v -0.486294 8.067624 0.870994
v -0.857515 8.067624 0.499772
v -0.993392 8.067624 -0.007325
v -0.857516 8.067624 -0.514423
v -0.486295 8.067624 -0.885644
v 0.020804 8.067624 -1.021521
v -0.000000 -1.641562 -0.630507
v 0.322592 -1.641562 -0.544069
v 0.558745 -1.641562 -0.307915
v 0.645183 -1.641562 0.014676
v 0.558745 -1.641562 0.337268
v 0.322592 -1.641562 0.573421
v 0.000000 -1.641562 0.659860
v -0.322591 -1.641562 0.573421
v -0.558745 -1.641562 0.337268
v -0.645183 -1.641562 0.014677
v -0.558745 -1.641562 -0.307915
v -0.322592 -1.641562 -0.544068
v -0.000000 -1.641562 -0.878220
v 0.446448 -1.641562 -0.758594
v 0.773271 -1.641562 -0.431772
v 0.892896 -1.641562 0.014676
v 0.773270 -1.641562 0.461124
v 0.446448 -1.641562 0.787947
v 0.000000 -1.641562 0.907572
v -0.446448 -1.641562 0.787947
v -0.773270 -1.641562 0.461125
v -0.892896 -1.641562 0.014677
v -0.773271 -1.641562 -0.431771
v -0.446449 -1.641562 -0.758594
v 0.000000 -8.457540 -1.383942
v 0.691971 -8.457540 -1.198529
v 1.198529 -8.457540 -0.691971
v 1.383942 -8.457540 0.000000
v 1.198529 -8.457540 0.691971
v 0.691971 -8.457540 1.198529
v 0.000000 -8.457540 1.383942
v -0.691971 -8.457540 1.198529
v -1.198529 -8.457540 0.691971
v -1.383942 -8.457540 0.000001
v -1.198529 -8.457540 -0.691970
v -0.691972 -8.457540 -1.198528
v -0.000000 -9.866350 -1.102530
v 0.551265 -9.866350 -0.954819
v 0.954819 -9.866350 -0.551265
v 1.102530 -9.866350 0.000000
v 0.954819 -9.866350 0.551265
v 0.551265 -9.866350 0.954819
v 0.000000 -9.866350 1.102530
v -0.551265 -9.866350 0.954819
v -0.954818 -9.866350 0.551265
v -1.102530 -9.866350 0.000001
v -0.954819 -9.866350 -0.551264
v -0.551265 -9.866350 -0.954818
vt 1.000000 0.000000
vt 1.000000 1.000000
vt 0.916667 1.000000
vt 0.916667 0.000000
vt 0.833333 1.000000
vt 0.833333 0.000000
vt 0.750000 1.000000
vt 0.750000 0.000000
vt 0.666667 1.000000
vt 0.666667 0.000000
vt 0.583333 1.000000
vt 0.583333 0.000000
vt 0.500000 1.000000
vt 0.500000 0.000000
vt 0.416667 1.000000
vt 0.416667 0.000000
vt 0.333333 1.000000
vt 0.333333 0.000000
vt 0.250000 1.000000
vt 0.250000 0.000000
vt 0.166667 1.000000
vt 0.166667 0.000000
vt 0.083333 1.000000
vt 0.083333 0.000000
vt 0.000000 1.000000
vt 0.000000 0.000000
vt 0.333333 0.000000
vt 0.416667 0.000000
vt 0.500000 0.000000
vt 0.583333 0.000000
vt 0.666667 0.000000
vt 0.750000 0.000000
vt 0.000000 0.000000
vt 0.083333 0.000000
vt 0.916667 0.000000
vt 1.000000 0.000000
vt 0.833333 0.000000
vt 0.166667 0.000000
vt 0.250000 0.000000
vt 0.666667 0.000000
vt 0.750000 0.000000
vt 0.083333 0.000000
vt 0.166667 0.000000
vt 0.916667 0.000000
vt 1.000000 0.000000
vt 0.333333 0.000000
vt 0.416667 0.000000
vt 0.583333 0.000000
vt 0.000000 0.000000
vt 0.833333 0.000000
vt 0.250000 0.000000
vt 0.500000 0.000000
vt 0.916667 1.000000
vt 0.833333 1.000000
vt 0.250000 1.000000
vt 0.166667 1.000000
vt 1.000000 1.000000
vt 0.333333 1.000000
vt 0.416667 1.000000
vt 0.500000 1.000000
vt 0.583333 1.000000
vt 0.666667 1.000000
vt 0.750000 1.000000
vt 0.083333 1.000000
vt 0.000000 1.000000
vt 0.500000 1.000000
vt 0.416667 1.000000
vt 0.416667 1.000000
vt 0.416667 1.000000
vt 0.166667 1.000000
vt 0.083333 1.000000
vt 1.000000 1.000000
vt 0.916667 1.000000
vt 1.000000 1.000000
vt 1.000000 1.000000
vt 0.666667 1.000000
vt 0.583333 1.000000
vt 0.000000 1.000000
vt 0.000000 1.000000
vt 0.083333 1.000000
vt 0.583333 1.000000
vt 0.500000 1.000000
vt 0.333333 1.000000
vt 0.250000 1.000000
vt 0.916667 1.000000
vt 0.916667 1.000000
vt 0.833333 1.000000
vt 0.750000 1.000000
vt 0.666667 1.000000
vt 0.750000 1.000000
vt 0.416667 1.000000
vt 0.666667 1.000000
vt 0.083333 1.000000
vt 0.916667 1.000000
vt 0.333333 1.000000
vt 0.583333 1.000000
vt 0.000000 1.000000
vt 0.833333 1.000000
vt 0.250000 1.000000
vt 0.500000 1.000000
vt 0.750000 1.000000
vt 0.166667 1.000000
vt 0.666667 1.000000
vt 0.750000 1.000000
vt 0.333333 1.000000
vt 0.333333 1.000000
vt 0.000000 1.000000
vt 0.083333 1.000000
vt 0.833333 1.000000
vt 0.833333 1.000000
vt 0.583333 1.000000
vt 0.500000 1.000000
vt 0.166667 1.000000
vt 0.250000 1.000000
vt 0.250000 1.000000
vt 0.166667 1.000000
vt 0.833333 1.000000
vt 0.916667 1.000000
vt 0.500000 1.000000
vt 0.500000 1.000000
vt 0.333333 1.000000
vt 0.333333 1.000000
vt 0.083333 1.000000
vt 0.000000 1.000000
vt 0.416667 1.000000
vt 0.416667 1.000000
vt 1.000000 1.000000
vt 1.000000 1.000000
vt 0.250000 1.000000
vt 0.166667 1.000000
vt 0.083333 1.000000
vt 0.000000 1.000000
vt 0.916667 1.000000
vt 0.166667 1.000000
vt 0.250000 1.000000
vt 0.583333 1.000000
vt 0.583333 1.000000
vt 0.750000 1.000000
vt 0.750000 1.000000
vt 0.666667 1.000000
vt 0.833333 1.000000
vt 0.666667 1.000000
vt 0.916667 0.000000
vt 0.916667 0.000000
vt 0.583333 0.000000
vt 0.500000 0.000000
vt 0.416667 0.000000
vt 0.333333 0.000000
vt 0.833333 0.000000
vt 0.833333 0.000000
vt 0.250000 0.000000
vt 0.166667 0.000000
vt 0.083333 0.000000
vt 0.166667 0.000000
vt 0.250000 0.000000
vt 0.416667 0.000000
vt 0.083333 0.000000
vt 0.000000 0.000000
vt 0.750000 0.000000
vt 0.000000 0.000000
vt 0.333333 0.000000
vt 1.000000 0.000000
vt 0.500000 0.000000
vt 0.666667 0.000000
vt 0.583333 0.000000
vt 0.750000 0.000000
vt 0.666667 0.000000
vt 1.000000 0.000000
vt 0.416667 0.000000
vt 0.416667 0.000000
vt 0.583333 0.000000
vt 0.666667 0.000000
vt 0.333333 0.000000
vt 0.333333 0.000000
vt 0.500000 0.000000
vt 0.750000 0.000000
vt 0.750000 0.000000
vt 0.583333 0.000000
vt 0.666667 0.000000
vt 0.916667 0.000000
vt 1.000000 0.000000
vt 0.500000 0.000000
vt 0.833333 0.000000
vt 0.833333 0.000000
vt 0.250000 0.000000
vt 0.166667 0.000000
vt 0.166667 0.000000
vt 0.250000 0.000000
vt 0.916667 0.000000
vt 1.000000 0.000000
vt 0.083333 0.000000
vt 0.083333 0.000000
vn 0.2588 0.0000 -0.9659
vn 0.7071 0.0000 -0.7071
vn 0.9659 0.0000 -0.2588
vn 0.9659 0.0000 0.2588
vn 0.7071 0.0000 0.7071
vn 0.2588 0.0000 0.9659
vn -0.2588 0.0000 0.9659
vn -0.7071 0.0000 0.7071
vn -0.9659 0.0000 0.2588
vn -0.9659 0.0000 -0.2588
vn -0.7071 0.0000 -0.7071
vn -0.2588 0.0000 -0.9659
vn -0.7034 0.1022 0.7034
vn -0.2575 0.1022 0.9609
vn 0.2575 0.1022 0.9609
vn 0.7034 0.1022 0.7034
vn 0.9609 0.1022 0.2575
vn -0.2575 0.1022 -0.9609
vn 0.2575 0.1022 -0.9609
vn 0.9609 0.1022 -0.2575
vn -0.7034 0.1022 -0.7034
vn 0.7034 0.1022 -0.7034
vn -0.9609 0.1022 -0.2575
vn -0.9609 0.1022 0.2575
vn 0.9484 -0.1895 0.2541
vn -0.6943 -0.1895 -0.6943
vn 0.2541 -0.1895 -0.9484
vn -0.6943 -0.1895 0.6943
vn 0.6943 -0.1895 0.6943
vn -0.2541 -0.1895 -0.9484
vn 0.6943 -0.1895 -0.6943
vn -0.9484 -0.1895 0.2541
vn 0.2541 -0.1895 0.9484
vn 0.9484 -0.1895 -0.2541
vn -0.9484 -0.1895 -0.2541
vn -0.2541 -0.1895 0.9484
vn 0.6735 -0.3045 -0.6735
vn -0.9199 -0.3050 -0.2465
vn 0.2465 -0.3046 -0.9200
vn -0.9199 -0.3050 0.2465
vn -0.6734 -0.3050 0.6734
vn -0.2465 -0.3049 0.9199
vn 0.2465 -0.3048 0.9200
vn 0.6735 -0.3046 0.6735
vn 0.9200 -0.3045 0.2465
vn -0.2465 -0.3047 -0.9200
vn 0.9201 -0.3045 -0.2465
vn -0.6734 -0.3049 -0.6734
vn -0.0051 0.9998 0.0189
vn 0.0000 0.0000 1.0000
vn -0.0139 0.9998 -0.0139
vn 0.0053 0.9998 -0.0200
vn 0.0145 0.9998 0.0145
vn -0.0185 0.9998 0.0050
vn 0.0204 0.9998 -0.0055
vn 0.0000 1.0000 0.0000
vn 0.0202 0.9998 0.0054
vn -0.0136 0.9998 0.0136
vn -0.0052 0.9998 -0.0195
vn 0.0149 0.9998 -0.0149
vn 0.0052 0.9998 0.0193
vn -0.0187 0.9998 -0.0050
vn -0.9991 0.0000 -0.0434
vn -0.4929 0.0000 -0.8701
vn -0.8510 0.0000 -0.5252
vn -0.9990 0.0000 0.0448
vn 0.8814 0.0000 0.4724
vn 0.4768 -0.0032 -0.8790
vn 0.0225 -0.0032 0.9997
vn -0.8423 0.0000 0.5389
vn 0.0163 0.0000 -0.9999
vn 0.5078 0.0000 0.8615
vn -0.5314 0.0000 0.8471
vn 0.8883 0.0000 -0.4593
vn -0.9902 -0.0682 -0.1220
vn 0.2257 0.4892 0.8424
vn -0.7028 0.1099 0.7028
vn 0.9657 0.1265 0.2266
vn -0.9599 0.1115 0.2572
vn 0.6056 0.5163 -0.6056
vn -0.6056 0.5163 -0.6056
vn 0.9657 -0.1265 -0.2266
vn -0.9597 0.1132 -0.2572
vn 0.9412 -0.1647 -0.2950
vn -0.2257 0.4892 0.8424
vn -0.7024 0.1148 -0.7024
vn -0.2571 0.1157 -0.9594
vn 0.8313 0.5092 -0.2228
vn -0.2210 0.5204 -0.8248
vn 0.9710 -0.1166 -0.2088
vn -0.6150 0.4935 0.6150
vn -0.9383 0.1686 0.3020
vn 0.2571 0.1157 -0.9594
vn 1.0000 0.0000 0.0000
vn 0.8360 0.5009 0.2240
vn 0.7024 0.1148 -0.7024
vn 0.9710 0.1166 0.2088
vn 0.9597 0.1132 -0.2572
vn -0.8360 0.5009 0.2240
vn 0.9383 0.1686 0.3020
vn 0.9599 0.1115 0.2572
vn 0.9412 0.1647 0.2950
vn 0.6150 0.4935 0.6150
vn 0.7028 0.1099 0.7028
vn 0.2210 0.5204 -0.8248
vn 0.9902 -0.0682 -0.1220
vn 0.2573 0.1090 0.9602
vn -0.8313 0.5092 -0.2228
vn -1.0000 0.0000 -0.0000
vn -0.2573 0.1090 0.9602
vn 0.8660 0.0000 0.5000
vn -0.5000 0.0000 -0.8660
vn -0.0000 0.0000 -1.0000
vn -0.8660 0.0000 0.5000
vn -0.5000 0.0000 0.8660
vn 0.5000 0.0000 0.8660
vn 0.8660 0.0000 -0.5000
usemtl None
s off
f 1/1/1 2/2/1 4/3/1 3/4/1
f 3/4/2 4/3/2 6/5/2 5/6/2
f 5/6/3 6/5/3 8/7/3 7/8/3
f 7/8/4 8/7/4 10/9/4 9/10/4
f 9/10/5 10/9/5 12/11/5 11/12/5
f 11/12/6 12/11/6 14/13/6 13/14/6
f 13/14/7 14/13/7 16/15/7 15/16/7
f 15/16/8 16/15/8 18/17/8 17/18/8
f 17/18/9 18/17/9 20/19/9 19/20/9
f 19/20/10 20/19/10 22/21/10 21/22/10
f 21/22/11 22/21/11 24/23/11 23/24/11
f 23/24/12 24/23/12 2/25/12 1/26/12
f 15/16/13 17/18/13 33/27/13 32/28/13
f 13/14/14 15/16/14 32/28/14 31/29/14
f 11/12/15 13/14/15 31/29/15 30/30/15
f 9/10/16 11/12/16 30/30/16 29/31/16
f 7/8/17 9/10/17 29/31/17 28/32/17
f 23/24/18 1/26/18 25/33/18 36/34/18
f 1/1/19 3/4/19 26/35/19 25/36/19
f 5/6/20 7/8/20 28/32/20 27/37/20
f 21/22/21 23/24/21 36/34/21 35/38/21
f 3/4/22 5/6/22 27/37/22 26/35/22
f 19/20/23 21/22/23 35/38/23 34/39/23
f 17/18/24 19/20/24 34/39/24 33/27/24
f 28/32/25 29/31/25 41/40/25 40/41/25
f 35/38/26 36/34/26 48/42/26 47/43/26
f 25/36/27 26/35/27 38/44/27 37/45/27
f 32/28/28 33/27/28 45/46/28 44/47/28
f 29/31/29 30/30/29 42/48/29 41/40/29
f 36/34/30 25/33/30 37/49/30 48/42/30
f 26/35/31 27/37/31 39/50/31 38/44/31
f 33/27/32 34/39/32 46/51/32 45/46/32
f 30/30/33 31/29/33 43/52/33 42/48/33
f 27/37/34 28/32/34 40/41/34 39/50/34
f 34/39/35 35/38/35 47/43/35 46/51/35
f 31/29/36 32/28/36 44/47/36 43/52/36
f 6/5/37 4/3/37 50/53/37 51/54/37
f 22/21/38 20/19/38 58/55/38 59/56/38
f 4/3/39 2/2/39 49/57/39 50/53/39
f 20/19/40 18/17/40 57/58/40 58/55/40
f 18/17/41 16/15/41 56/59/41 57/58/41
f 16/15/42 14/13/42 55/60/42 56/59/42
f 14/13/43 12/11/43 54/61/43 55/60/43
f 12/11/44 10/9/44 53/62/44 54/61/44
f 10/9/45 8/7/45 52/63/45 53/62/45
f 2/25/46 24/23/46 60/64/46 49/65/46
f 8/7/47 6/5/47 51/54/47 52/63/47
f 24/23/48 22/21/48 59/56/48 60/64/48
f 56/59/49 55/60/49 67/66/49 68/67/49
f 56/59/50 68/67/50 92/68/50 78/69/50
f 60/64/51 59/56/51 71/70/51 72/71/51
f 50/53/52 49/57/52 61/72/52 62/73/52
f 61/72/50 49/57/50 85/74/50 97/75/50
f 54/61/53 53/62/53 65/76/53 66/77/53
f 72/71/50 61/78/50 97/79/50 96/80/50
f 55/60/50 54/61/50 80/81/50 79/82/50
f 58/55/54 57/58/54 69/83/54 70/84/54
f 50/53/50 62/73/50 86/85/50 84/86/50
f 52/63/55 51/54/55 63/87/55 64/88/55
f 64/88/50 65/76/50 89/89/50 88/90/50
f 68/67/56 67/66/56 73/91/56
f 65/76/56 64/88/56 73/92/56
f 72/71/56 71/70/56 73/93/56
f 62/73/56 61/72/56 73/94/56
f 69/83/56 68/67/56 73/95/56
f 66/77/56 65/76/56 73/96/56
f 61/78/56 72/71/56 73/97/56
f 63/87/56 62/73/56 73/98/56
f 70/84/56 69/83/56 73/99/56
f 67/66/56 66/77/56 73/100/56
f 64/88/56 63/87/56 73/101/56
f 71/70/56 70/84/56 73/102/56
f 81/103/57 82/104/57 88/90/57 89/89/57
f 77/105/58 78/69/58 92/68/58 93/106/58
f 85/107/59 74/108/59 96/80/59 97/79/59
f 83/109/60 84/86/60 86/85/60 87/110/60
f 79/82/61 80/81/61 90/111/61 91/112/61
f 75/113/62 76/114/62 94/115/62 95/116/62
f 66/77/50 67/66/50 91/112/50 90/111/50
f 69/83/50 57/58/50 77/105/50 93/106/50
f 57/58/50 56/59/50 78/69/50 77/105/50
f 67/66/50 55/60/50 79/82/50 91/112/50
f 54/61/50 66/77/50 90/111/50 80/81/50
f 65/76/50 53/62/50 81/103/50 89/89/50
f 51/54/50 50/53/50 84/86/50 83/109/50
f 68/67/50 69/83/50 93/106/50 92/68/50
f 63/87/50 51/54/50 83/109/50 87/110/50
f 59/56/50 58/55/50 76/114/50 75/113/50
f 52/63/50 64/88/50 88/90/50 82/104/50
f 58/55/50 70/84/50 94/115/50 76/114/50
f 62/73/50 63/87/50 87/110/50 86/85/50
f 60/64/50 72/71/50 96/80/50 74/108/50
f 53/62/50 52/63/50 82/104/50 81/103/50
f 70/84/50 71/70/50 95/116/50 94/115/50
f 49/65/50 60/64/50 74/108/50 85/107/50
f 71/70/50 59/56/50 75/113/50 95/116/50
f 86/85/8 87/110/8 111/117/8 110/118/8
f 91/112/63 79/82/63 103/119/63 115/120/63
f 93/106/64 77/105/64 101/121/64 117/122/64
f 85/107/12 74/108/12 98/123/12 109/124/12
f 92/68/65 78/69/65 102/125/65 116/126/65
f 85/74/66 97/75/66 121/127/66 109/128/66
f 75/113/10 76/114/10 100/129/10 99/130/10
f 97/79/12 96/80/12 120/131/12 121/132/12
f 86/85/67 84/86/67 108/133/67 110/118/67
f 94/115/4 95/116/4 119/134/4 118/135/4
f 95/116/68 75/113/68 99/130/68 119/134/68
f 77/105/8 78/69/8 102/125/8 101/121/8
f 76/114/69 94/115/69 118/135/69 100/129/69
f 92/68/2 93/106/2 117/122/2 116/126/2
f 74/108/70 96/80/70 120/131/70 98/123/70
f 80/81/12 79/82/12 103/119/12 104/136/12
f 90/111/12 91/112/12 115/120/12 114/137/12
f 82/104/71 88/90/71 112/138/71 106/139/71
f 81/103/4 82/104/4 106/139/4 105/140/4
f 87/110/72 83/109/72 107/141/72 111/117/72
f 89/89/4 88/90/4 112/138/4 113/142/4
f 89/89/73 81/103/73 105/140/73 113/142/73
f 83/109/2 84/86/2 108/133/2 107/141/2
f 80/81/74 90/111/74 114/137/74 104/136/74
f 3/4/75 26/35/75 135/143/75 123/144/75
f 13/14/76 11/12/76 127/145/76 128/146/76
f 33/27/77 32/28/77 141/147/77 142/148/77
f 27/37/78 5/6/78 124/149/78 136/150/78
f 34/39/79 33/27/79 142/148/79 143/151/79
f 5/6/80 3/4/80 123/144/80 124/149/80
f 23/24/81 21/22/81 132/152/81 133/153/81
f 35/38/82 21/22/82 132/152/82 144/154/82
f 35/38/83 34/39/83 143/151/83 144/154/83
f 34/39/84 19/20/84 131/155/84 143/151/84
f 15/16/85 13/14/85 128/146/85 129/156/85
f 36/34/86 35/38/86 144/154/86 145/157/86
f 25/33/87 36/34/87 145/157/87 134/158/87
f 7/8/88 5/6/88 124/149/88 125/159/88
f 1/26/89 23/24/89 133/153/89 122/160/89
f 32/28/90 15/16/90 129/156/90 141/147/90
f 17/18/91 15/16/91 129/156/91 130/161/91
f 17/18/92 33/27/92 142/148/92 130/161/92
f 26/35/93 25/36/93 134/162/93 135/143/93
f 31/29/94 13/14/94 128/146/94 140/163/94
f 9/10/95 7/8/95 125/159/95 126/164/95
f 27/37/96 26/35/96 135/143/96 136/150/96
f 30/30/97 11/12/97 127/145/97 139/165/97
f 28/32/98 27/37/98 136/150/98 137/166/98
f 19/20/99 17/18/99 130/161/99 131/155/99
f 29/31/100 9/10/100 126/164/100 138/167/100
f 29/31/101 28/32/101 137/166/101 138/167/101
f 28/32/102 7/8/102 125/159/102 137/166/102
f 11/12/103 9/10/103 126/164/103 127/145/103
f 30/30/104 29/31/104 138/167/104 139/165/104
f 3/4/105 1/1/105 122/168/105 123/144/105
f 36/34/106 23/24/106 133/153/106 145/157/106
f 31/29/107 30/30/107 139/165/107 140/163/107
f 21/22/108 19/20/108 131/155/108 132/152/108
f 1/26/109 25/33/109 134/158/109 122/160/109
f 32/28/110 31/29/110 140/163/110 141/147/110
f 44/47/111 32/28/111 153/169/111 165/170/111
f 41/40/5 42/48/5 163/171/5 162/172/5
f 33/27/112 45/46/112 166/173/112 154/174/112
f 31/29/7 32/28/7 153/169/7 152/175/7
f 40/41/113 28/32/113 149/176/113 161/177/113
f 30/30/114 42/48/114 163/171/114 151/178/114
f 29/31/115 41/40/115 162/172/115 150/179/115
f 25/36/1 26/35/1 147/180/1 146/181/1
f 43/52/7 44/47/7 165/170/7 164/182/7
f 27/37/116 39/50/116 160/183/116 148/184/116
f 33/27/9 34/39/9 155/185/9 154/174/9
f 47/43/115 35/38/115 156/186/115 168/187/115
f 34/39/113 46/51/113 167/188/113 155/185/113
f 37/45/1 38/44/1 159/189/1 158/190/1
f 36/34/117 48/42/117 169/191/117 157/192/117
f 27/37/3 28/32/3 149/176/3 148/184/3
f 45/46/9 46/51/9 167/188/9 166/173/9
f 31/29/109 43/52/109 164/182/109 152/175/109
f 35/38/11 36/34/11 157/192/11 156/186/11
f 37/45/109 25/36/109 146/181/109 158/190/109
f 39/50/3 40/41/3 161/177/3 160/183/3
f 26/35/111 38/44/111 159/189/111 147/180/111
f 29/31/5 30/30/5 151/178/5 150/179/5
f 47/43/11 48/42/11 169/191/11 168/187/11
